<svg id="Capa_1" enable-background="new 0 0 512.102 512.102" height="512" viewBox="0 0 512.102 512.102" width="512" xmlns="http://www.w3.org/2000/svg"><g><g><path d="m416.903 128.715c-11.08-15.825-33.244-20.064-56.195-11.61-15.924-13.598-33.798-20.729-52.208-20.729-18.576 0-36.725 7.11-52.5 20.571-15.764-13.456-33.92-20.571-52.5-20.571-18.41 0-36.284 7.13-52.208 20.729-22.952-8.455-45.116-4.215-56.195 11.61-12.634 18.043-6.59 43.94 13.682 63.248-1.866 8.715-2.779 16.767-2.779 24.413 0 34.695 16.626 63.183 45.604 78.155l.075.039c-.512 7.628-.943 20.379-.671 43.15.478 40.03 34.291 73.327 74.167 73.653 11.014.088 21.388-1.622 30.825-5.102 9.752 3.6 20.178 5.186 30.825 5.102 39.878-.326 73.689-33.625 74.167-73.653.272-22.774-.159-35.523-.671-43.15l.064-.033c28.989-14.978 45.615-43.466 45.615-78.161 0-7.647-.913-15.699-2.778-24.412 20.274-19.306 26.317-45.202 13.681-63.249zm-39.407 45.757c-4.969 3.692-7.159 10.058-5.515 16.026 2.704 9.811 4.019 18.276 4.019 25.879 0 23.764-10.161 41.575-29.396 51.513l-9.082 4.702c-5.47 2.832-8.652 8.719-8.026 14.846 1.611 15.634 1.763 27.789 1.499 49.924-.282 23.662-20.622 43.817-44.414 44.012-5.578.05-10.797-.56-15.58-1.803v-.228l25.606-25.606c2.813-2.813 4.394-6.628 4.394-10.607 0-1.758-2.111-55.322-3.692-73.064-.54-6.059 2.62-11.79 8.049-14.601l27.501-14.239c7.356-3.809 10.232-12.861 6.423-20.217-3.809-7.357-12.86-10.232-20.217-6.424l-27.501 14.239c-16.288 8.433-25.762 25.667-24.137 43.905 1.233 13.831 2.759 49.763 3.34 64.422l-14.767 14.765-14.766-14.766c.581-14.659 2.107-50.59 3.339-64.419 1.625-18.241-7.85-35.475-24.141-43.908l-27.454-14.21c-7.355-3.807-16.408-.932-20.216 6.426-3.808 7.357-.931 16.408 6.426 20.217l27.454 14.21c5.43 2.811 8.589 8.542 8.049 14.602-1.581 17.739-3.691 71.304-3.691 73.062 0 3.978 1.581 7.793 4.394 10.607l25.606 25.605v.227c-4.796 1.246-10.014 1.854-15.58 1.805-23.792-.195-44.132-20.349-44.414-44.012-.239-19.996-.202-33.352 1.499-49.923.626-6.127-2.556-12.015-8.026-14.847l-9.093-4.708c-19.225-9.932-29.386-27.743-29.386-51.508 0-7.599 1.315-16.064 4.02-25.879 1.645-5.967-.545-12.332-5.513-16.025-13.983-10.392-18.126-23.851-14.835-28.551 3.067-4.381 14.89-4.549 27.601 2.187 5.899 3.126 13.153 1.977 17.797-2.818 8.357-8.628 21.809-18.914 38.43-18.914 11.343 0 22.761 4.629 33.007 13.375l9.741 8.335c5.614 4.803 13.89 4.803 19.504 0l9.728-8.324c10.259-8.757 21.677-13.386 33.02-13.386 16.621 0 30.072 10.285 38.43 18.914 4.644 4.795 11.898 5.944 17.797 2.818 12.709-6.734 24.534-6.568 27.601-2.186 3.292 4.701-.849 18.16-14.832 28.55z"/><path d="m429.496 82.586 8.769-5.261c4.347-2.608 7.083-7.235 7.272-12.301.19-5.066-2.192-9.885-6.332-12.811-31.061-21.953-67.3-37.507-107.712-46.228-26.243-5.663-53.589.777-75.493 17.305-21.897-16.516-49.242-22.943-75.49-17.268-40.396 8.733-76.603 24.274-107.612 46.19-4.14 2.926-6.521 7.745-6.332 12.811.19 5.066 2.926 9.693 7.273 12.301l8.768 5.261c-50.902 39.526-82.607 99.162-82.607 170.544 0 24.436 3.077 48.476 9.145 71.453 1.433 5.426 5.776 9.599 11.255 10.814 5.478 1.216 11.178-.73 14.771-5.041l5.217-6.261c18.992 62.453 62.018 112.641 113.355 151.687 5.011 3.812 11.87 4.088 17.17.693 5.302-3.395 7.919-9.74 6.554-15.885l-.796-3.583c26.836 22.105 53.26 40.257 72.842 49.649 2.05.984 4.269 1.475 6.487 1.475s4.437-.492 6.487-1.475c19.323-9.268 46.115-27.693 72.964-49.74l-.817 3.674c-1.365 6.146 1.252 12.49 6.554 15.885 5.302 3.396 12.16 3.119 17.17-.693 51.338-39.047 94.364-89.234 113.356-151.687l5.217 6.261c3.592 4.311 9.292 6.257 14.771 5.041 5.479-1.215 9.822-5.387 11.255-10.814 6.068-22.977 9.145-47.018 9.145-71.453.001-71.339-31.671-130.993-82.606-170.543zm50.367 204.425-4.348-5.218c-3.756-4.507-9.795-6.411-15.457-4.872s-9.907 6.237-10.865 12.026c-8.101 48.949-33.465 94.038-75.569 134.478l1.109-4.989c1.431-6.44-1.514-13.059-7.255-16.308-5.742-3.249-12.932-2.366-17.716 2.176-31.823 30.213-68.397 58.2-93.76 71.971-25.26-13.73-61.792-41.714-93.662-71.971-4.793-4.55-11.984-5.42-17.716-2.176-5.741 3.249-8.686 9.868-7.255 16.308l1.109 4.989c-42.103-40.44-67.468-85.53-75.569-134.479-.958-5.789-5.203-10.487-10.865-12.026-5.658-1.538-11.7.365-15.457 4.872l-4.348 5.218c-1.489-11.129-2.239-22.452-2.239-33.881 0-66.844 31.296-123.234 88.123-158.784 4.425-2.768 7.093-7.637 7.044-12.856s-2.807-10.038-7.283-12.723l-7.785-4.671c22.988-13.045 48.709-22.688 76.749-28.75 20.367-4.403 42.799 2.644 58.545 18.39 2.813 2.813 6.628 4.394 10.607 4.394s7.793-1.58 10.607-4.394c15.758-15.758 38.197-22.819 58.557-18.425 28.062 6.056 53.814 15.71 76.842 28.783l-7.788 4.672c-4.476 2.685-7.233 7.504-7.282 12.723-.048 5.219 2.62 10.088 7.044 12.856 56.827 35.55 88.123 91.94 88.123 158.784 0 11.43-.75 22.753-2.24 33.883z"/></g></g></svg>